<?xml version="1.0" encoding="UTF-8"?>
<!DOCTYPE svg PUBLIC "-//W3C//DTD SVG 1.1//EN" "http://www.w3.org/Graphics/SVG/1.1/DTD/svg11.dtd">
<svg xmlns="http://www.w3.org/2000/svg" version="1.1" width="91px" height="90px" style="shape-rendering:geometricPrecision; text-rendering:geometricPrecision; image-rendering:optimizeQuality; fill-rule:evenodd; clip-rule:evenodd" xmlns:xlink="http://www.w3.org/1999/xlink">
<g><path style="opacity:1" fill="#071818" d="M -0.5,-0.5 C 29.8333,-0.5 60.1667,-0.5 90.5,-0.5C 90.5,29.5 90.5,59.5 90.5,89.5C 60.1667,89.5 29.8333,89.5 -0.5,89.5C -0.5,59.5 -0.5,29.5 -0.5,-0.5 Z"/></g>
<g><path style="opacity:1" fill="#0f4747" d="M 58.5,7.5 C 59.625,6.34775 59.625,5.34775 58.5,4.5C 58.0618,4.56544 57.7284,4.39877 57.5,4C 58.5089,1.82817 60.1756,0.661504 62.5,0.5C 62.1199,3.74488 60.9532,6.74488 59,9.5C 58.5357,8.90558 58.369,8.23891 58.5,7.5 Z"/></g>
<g><path style="opacity:1" fill="#0f403c" d="M 29.5,17.5 C 29.334,11.0762 27.834,10.4095 25,15.5C 24.0786,19.7112 24.5786,23.7112 26.5,27.5C 27.1067,27.3764 27.44,27.0431 27.5,26.5C 28.7759,27.3864 28.7759,28.3864 27.5,29.5C 26.5745,30.6405 25.7412,30.6405 25,29.5C 23.1285,26.7946 22.2952,23.7946 22.5,20.5C 23.8387,15.1598 25.1721,9.82644 26.5,4.5C 27.8221,4.33003 28.9887,4.66337 30,5.5C 30.8119,9.68879 30.6453,13.6888 29.5,17.5 Z"/></g>
<g><path style="opacity:1" fill="#23bd90" d="M 48.5,9.5 C 53.5917,9.49676 53.5917,10.3301 48.5,12C 46.5359,13.451 45.2026,15.2843 44.5,17.5C 43.5416,17.9528 42.7083,18.6195 42,19.5C 42.3737,16.725 43.3737,14.0583 45,11.5C 45.8159,10.1772 46.9826,9.51056 48.5,9.5 Z"/></g>
<g><path style="opacity:1" fill="#15896b" d="M 58.5,4.5 C 59.625,5.34775 59.625,6.34775 58.5,7.5C 55.2525,12.7373 50.5858,16.0706 44.5,17.5C 45.2026,15.2843 46.5359,13.451 48.5,12C 53.5917,10.3301 53.5917,9.49676 48.5,9.5C 49.6353,7.91217 50.9686,7.57883 52.5,8.5C 55.1812,8.06764 57.1812,6.73431 58.5,4.5 Z"/></g>
<g><path style="opacity:1" fill="#293d39" d="M 75.5,19.5 C 73.5605,21.6302 72.8938,23.9635 73.5,26.5C 72.5,26.8333 71.8333,27.5 71.5,28.5C 67.5457,27.6187 63.5457,26.9521 59.5,26.5C 60.1534,25.1932 60.8201,23.8599 61.5,22.5C 60.4557,20.2324 60.289,17.8991 61,15.5C 63.3687,14.732 65.5353,13.5653 67.5,12C 73.796,10.7244 76.4626,13.2244 75.5,19.5 Z"/></g>
<g><path style="opacity:1" fill="#20a37f" d="M 29.5,17.5 C 28.4222,20.4021 27.7556,23.4021 27.5,26.5C 27.44,27.0431 27.1067,27.3764 26.5,27.5C 24.5786,23.7112 24.0786,19.7112 25,15.5C 27.834,10.4095 29.334,11.0762 29.5,17.5 Z"/></g>
<g><path style="opacity:1" fill="#3f7364" d="M 72.5,13.5 C 73.7632,16.0031 73.2632,18.3364 71,20.5C 70.586,20.0426 70.086,19.7093 69.5,19.5C 68.5713,20.6888 68.238,22.0222 68.5,23.5C 62.8402,23.1428 61.0068,20.4761 63,15.5C 64.582,16.9603 65.9153,18.627 67,20.5C 70.1143,19.2143 71.9477,16.881 72.5,13.5 Z"/></g>
<g><path style="opacity:1" fill="#2a6452" d="M 75.5,19.5 C 76.7794,21.1233 78.1128,22.79 79.5,24.5C 78.1627,27.3905 76.1627,28.0572 73.5,26.5C 72.8938,23.9635 73.5605,21.6302 75.5,19.5 Z"/></g>
<g><path style="opacity:1" fill="#446d60" d="M 27.5,35.5 C 29.0236,31.7978 31.1903,28.4645 34,25.5C 34.3742,26.4162 34.8742,27.2496 35.5,28C 32.9638,30.705 30.2971,33.205 27.5,35.5 Z"/></g>
<g><path style="opacity:1" fill="#12453e" d="M 7.5,28.5 C 7.16667,28.5 6.83333,28.5 6.5,28.5C 5.51836,31.9619 5.18503,35.6286 5.5,39.5C 4.88258,39.3893 4.38258,39.056 4,38.5C 3.50074,33.5111 3.33407,28.5111 3.5,23.5C 4.5,23.5 5.5,23.5 6.5,23.5C 6.36596,25.2915 6.69929,26.9582 7.5,28.5 Z"/></g>
<g><path style="opacity:1" fill="#385b52" d="M 59.5,26.5 C 63.5457,26.9521 67.5457,27.6187 71.5,28.5C 71.6716,29.4916 71.3382,30.1583 70.5,30.5C 69.5489,31.9187 69.2155,33.5853 69.5,35.5C 67.7085,35.634 66.0418,35.3007 64.5,34.5C 62.2459,33.5849 60.2459,32.2516 58.5,30.5C 59.2458,29.2638 59.5792,27.9305 59.5,26.5 Z"/></g>
<g><path style="opacity:1" fill="#167359" d="M 70.5,30.5 C 70.6347,38.5081 66.9681,40.6747 59.5,37C 59.0426,36.586 58.7093,36.086 58.5,35.5C 60.6459,34.9434 62.6459,34.61 64.5,34.5C 66.0418,35.3007 67.7085,35.634 69.5,35.5C 69.2155,33.5853 69.5489,31.9187 70.5,30.5 Z"/></g>
<g><path style="opacity:1" fill="#0b9170" d="M 6.5,28.5 C 6.83333,28.5 7.16667,28.5 7.5,28.5C 9.62387,33.9884 11.2905,39.655 12.5,45.5C 12.3333,46.1667 12.1667,46.8333 12,47.5C 11.6012,47.2716 11.4346,46.9382 11.5,46.5C 7.9294,41.1466 6.26274,35.1466 6.5,28.5 Z"/></g>
<g><path style="opacity:1" fill="#38be97" d="M 6.5,28.5 C 6.26274,35.1466 7.9294,41.1466 11.5,46.5C 8.7805,44.7807 6.7805,42.4474 5.5,39.5C 5.18503,35.6286 5.51836,31.9619 6.5,28.5 Z"/></g>
<g><path style="opacity:1" fill="#1b9474" d="M 24.5,45.5 C 23.4341,44.3079 22.6008,44.6412 22,46.5C 21.5172,45.552 21.3505,44.552 21.5,43.5C 22.7899,42.9423 23.6232,41.9423 24,40.5C 24.9772,41.7736 25.8106,41.7736 26.5,40.5C 30.0229,38.527 33.6896,37.8603 37.5,38.5C 39.4586,37.2519 40.9586,35.5852 42,33.5C 39.5112,39.8276 35.0112,44.4943 28.5,47.5C 27.1401,46.8201 25.8068,46.1534 24.5,45.5 Z"/></g>
<g><path style="opacity:1" fill="#3b695d" d="M 27.5,35.5 C 27.2969,37.0443 26.6302,38.3777 25.5,39.5C 25.6236,40.1067 25.9569,40.44 26.5,40.5C 25.8106,41.7736 24.9772,41.7736 24,40.5C 23.6232,41.9423 22.7899,42.9423 21.5,43.5C 21.1667,43.5 20.8333,43.5 20.5,43.5C 22.0941,40.2358 24.4275,37.5691 27.5,35.5 Z"/></g>
<g><path style="opacity:1" fill="#20473d" d="M 60.5,46.5 C 58.0458,47.6206 55.3791,48.454 52.5,49C 51.0705,50.8803 51.4038,52.3803 53.5,53.5C 55.4086,52.6518 57.4086,52.3184 59.5,52.5C 59.5,53.1667 59.1667,53.5 58.5,53.5C 56.3024,53.8751 54.3024,54.5418 52.5,55.5C 50.955,54.7703 50.1216,53.437 50,51.5C 49.6667,52.8333 49.3333,54.1667 49,55.5C 48.2917,54.6195 47.4584,53.9528 46.5,53.5C 46.7329,51.9382 47.3995,50.6049 48.5,49.5C 49.172,48.7326 50.0053,48.0659 51,47.5C 53.1201,39.5678 53.6201,39.5678 52.5,47.5C 55.1272,46.9084 57.7938,46.5751 60.5,46.5 Z"/></g>
<g><path style="opacity:1" fill="#185545" d="M 69.5,44.5 C 75.5545,42.2569 81.8879,41.0903 88.5,41C 82.2387,42.6191 75.9053,43.7858 69.5,44.5 Z"/></g>
<g><path style="opacity:1" fill="#1c725a" d="M 69.5,44.5 C 66.7814,45.913 63.7814,46.5797 60.5,46.5C 63.2186,45.087 66.2186,44.4203 69.5,44.5 Z"/></g>
<g><path style="opacity:1" fill="#526965" d="M 48.5,49.5 C 47.3995,50.6049 46.7329,51.9382 46.5,53.5C 46.5,53.8333 46.5,54.1667 46.5,54.5C 46.1667,54.5 45.8333,54.5 45.5,54.5C 45.7811,50.8121 46.2811,47.1454 47,43.5C 47.1909,45.7078 47.6909,47.7078 48.5,49.5 Z"/></g>
<g><path style="opacity:1" fill="#1c3430" d="M 20.5,43.5 C 20.8333,43.5 21.1667,43.5 21.5,43.5C 21.3505,44.552 21.5172,45.552 22,46.5C 22.6008,44.6412 23.4341,44.3079 24.5,45.5C 23.7495,49.9781 23.4162,54.3115 23.5,58.5C 23.1667,58.5 22.8333,58.5 22.5,58.5C 19.8879,55.3787 17.8879,51.8787 16.5,48C 17.3281,46.0077 18.6614,44.5077 20.5,43.5 Z"/></g>
<g><path style="opacity:1" fill="#0c1817" d="M 58.5,53.5 C 57.8902,54.391 57.5569,55.391 57.5,56.5C 56.4155,58.3186 55.0822,59.9853 53.5,61.5C 53.638,59.5641 53.3047,57.5641 52.5,55.5C 54.3024,54.5418 56.3024,53.8751 58.5,53.5 Z"/></g>
<g><path style="opacity:1" fill="#2eb9b7" d="M 65.5,59.5 C 65.5,60.1667 65.1667,60.5 64.5,60.5C 64.1667,60.5 63.8333,60.5 63.5,60.5C 60.8414,58.8375 61.1748,57.5042 64.5,56.5C 63.624,55.7492 62.624,55.2492 61.5,55C 62,54.5 62.5,54 63,53.5C 65.0162,54.9552 65.8495,56.9552 65.5,59.5 Z"/></g>
<g><path style="opacity:1" fill="#35817c" d="M 65.5,59.5 C 65.8495,56.9552 65.0162,54.9552 63,53.5C 62.5,54 62,54.5 61.5,55C 62.624,55.2492 63.624,55.7492 64.5,56.5C 61.1748,57.5042 60.8414,58.8375 63.5,60.5C 61.5749,60.8901 59.5749,61.2235 57.5,61.5C 57.8769,59.742 58.5435,58.0754 59.5,56.5C 59.0302,55.537 58.3635,55.537 57.5,56.5C 57.5569,55.391 57.8902,54.391 58.5,53.5C 59.1667,53.5 59.5,53.1667 59.5,52.5C 62.7989,51.6239 66.1322,51.4572 69.5,52C 68.1667,52.3333 66.8333,52.6667 65.5,53C 68.1339,55.2933 68.1339,57.46 65.5,59.5 Z"/></g>
<g><path style="opacity:1" fill="#235f50" d="M 52.5,55.5 C 53.3047,57.5641 53.638,59.5641 53.5,61.5C 55.0822,59.9853 56.4155,58.3186 57.5,56.5C 58.3635,55.537 59.0302,55.537 59.5,56.5C 58.5435,58.0754 57.8769,59.742 57.5,61.5C 57.6309,62.3764 57.2975,63.0431 56.5,63.5C 54.1143,62.0116 53.4476,62.3449 54.5,64.5C 50.8388,64.6499 49.8388,63.1499 51.5,60C 50.0024,59.4153 49.0024,59.9153 48.5,61.5C 47.7321,59.2854 47.0654,56.9521 46.5,54.5C 46.5,54.1667 46.5,53.8333 46.5,53.5C 47.4584,53.9528 48.2917,54.6195 49,55.5C 49.3333,54.1667 49.6667,52.8333 50,51.5C 50.1216,53.437 50.955,54.7703 52.5,55.5 Z"/></g>
<g><path style="opacity:1" fill="#0f4744" d="M 8.5,68.5 C 7.60433,67.4937 6.93767,67.4937 6.5,68.5C 4.78679,67.3646 4.12012,65.698 4.5,63.5C 8.25502,63.5631 9.58835,65.2298 8.5,68.5 Z"/></g>
<g><path style="opacity:1" fill="#388b72" d="M 45.5,54.5 C 45.8333,54.5 46.1667,54.5 46.5,54.5C 47.0654,56.9521 47.7321,59.2854 48.5,61.5C 48.2436,63.7925 48.5769,65.9592 49.5,68C 47.1944,69.7931 46.8611,71.9597 48.5,74.5C 48.1924,75.3081 47.6924,75.9747 47,76.5C 46.3546,72.6378 46.5213,68.8045 47.5,65C 45.8658,61.7474 45.1992,58.2474 45.5,54.5 Z"/></g>
<g><path style="opacity:1" fill="#647875" d="M 74.5,68.5 C 74.5,68.8333 74.5,69.1667 74.5,69.5C 73.8501,69.8039 73.1835,70.1373 72.5,70.5C 71.6816,73.1071 71.1816,75.7737 71,78.5C 70.5065,76.8659 70.3398,75.1992 70.5,73.5C 69.1667,73.5 67.8333,73.5 66.5,73.5C 67.6085,72.71 68.9419,72.21 70.5,72C 69.2625,71.7679 68.2625,71.2679 67.5,70.5C 68.4959,70.5858 69.3292,70.2524 70,69.5C 70.6667,57.5 71.3333,57.5 72,69.5C 72.6708,68.7476 73.5041,68.4142 74.5,68.5 Z"/></g>
<g><path style="opacity:1" fill="#1ba47e" d="M 36.5,73.5 C 34.1257,70.3141 33.1257,66.6474 33.5,62.5C 34.0744,59.0325 35.9078,56.3659 39,54.5C 39.1667,55 39.3333,55.5 39.5,56C 39.0842,62.0775 38.0842,67.9109 36.5,73.5 Z"/></g>
<g><path style="opacity:1" fill="#103734" d="M 33.5,62.5 C 33.1257,66.6474 34.1257,70.3141 36.5,73.5C 35.8946,75.4812 34.8946,75.8146 33.5,74.5C 31.7376,73.7377 30.7376,72.4044 30.5,70.5C 30.3379,68.4727 30.5045,66.4727 31,64.5C 31.3333,64.8333 31.6667,65.1667 32,65.5C 32.2321,64.2625 32.7321,63.2625 33.5,62.5 Z"/></g>
<g><path style="opacity:1" fill="#2ea7a5" d="M 64.5,62.5 C 66.1675,64.4786 66.8342,66.812 66.5,69.5C 63.5283,71.6935 60.6949,71.6935 58,69.5C 57.5086,64.8214 59.6753,62.4881 64.5,62.5 Z"/></g>
<g><path style="opacity:1" fill="#189876" d="M 25.5,66.5 C 22.3749,73.0405 17.3749,75.2071 10.5,73C 8.95862,71.6288 7.62529,70.1288 6.5,68.5C 6.93767,67.4937 7.60433,67.4937 8.5,68.5C 9.5774,69.0184 10.7441,69.3517 12,69.5C 15.3942,67.9521 18.8942,66.6188 22.5,65.5C 23.5837,65.685 24.5837,66.0183 25.5,66.5 Z"/></g>
<g><path style="opacity:1" fill="#193731" d="M 63.5,60.5 C 63.8333,60.5 64.1667,60.5 64.5,60.5C 64.5,61.1667 64.5,61.8333 64.5,62.5C 59.6753,62.4881 57.5086,64.8214 58,69.5C 60.6949,71.6935 63.5283,71.6935 66.5,69.5C 66.5,70.1667 66.8333,70.5 67.5,70.5C 68.2625,71.2679 69.2625,71.7679 70.5,72C 68.9419,72.21 67.6085,72.71 66.5,73.5C 66.5,74.1667 66.1667,74.5 65.5,74.5C 65.0377,73.1201 64.0377,72.4534 62.5,72.5C 56.9214,75.422 53.7548,73.7553 53,67.5C 54.1091,71.017 55.2758,71.1837 56.5,68C 56.1639,66.9701 55.4972,66.4701 54.5,66.5C 55.5063,65.6043 55.5063,64.9377 54.5,64.5C 53.4476,62.3449 54.1143,62.0116 56.5,63.5C 57.2975,63.0431 57.6309,62.3764 57.5,61.5C 59.5749,61.2235 61.5749,60.8901 63.5,60.5 Z"/></g>
<g><path style="opacity:1" fill="#3b6156" d="M 22.5,58.5 C 22.8333,58.5 23.1667,58.5 23.5,58.5C 25.3813,62.1192 27.7146,66.1192 30.5,70.5C 30.7376,72.4044 31.7376,73.7377 33.5,74.5C 33.631,75.2389 33.4643,75.9056 33,76.5C 32.3333,75.1667 31.6667,75.1667 31,76.5C 29.2507,73.0508 27.4174,69.7174 25.5,66.5C 23.9565,64.0722 22.9565,61.4056 22.5,58.5 Z"/></g>
<g><path style="opacity:1" fill="#295f4f" d="M 54.5,66.5 C 55.4972,66.4701 56.1639,66.9701 56.5,68C 55.2758,71.1837 54.1091,71.017 53,67.5C 53.7548,73.7553 56.9214,75.422 62.5,72.5C 64.0377,72.4534 65.0377,73.1201 65.5,74.5C 59.6497,75.2362 53.983,76.4028 48.5,78C 48.8024,76.3451 50.1358,75.0118 52.5,74C 51.6433,73.3109 50.9767,72.4776 50.5,71.5C 50.8797,69.9793 51.0464,68.3126 51,66.5C 52.1455,65.3157 53.3121,65.3157 54.5,66.5 Z"/></g>
<g><path style="opacity:1" fill="#1e5948" d="M 74.5,69.5 C 74.5,69.1667 74.5,68.8333 74.5,68.5C 74.7522,63.4814 75.2522,58.4814 76,53.5C 76.3328,59.3723 76.1662,65.0389 75.5,70.5C 80.6817,71.776 80.6817,72.4427 75.5,72.5C 75.6655,76.5138 75.4988,80.5138 75,84.5C 74.5007,79.5111 74.3341,74.5111 74.5,69.5 Z"/></g>
</svg>
