<svg width="224" height="2" viewBox="0 0 224 2" fill="none" xmlns="http://www.w3.org/2000/svg">
<rect width="22" height="2" fill="#66D4B7"/>
<rect x="26" width="22" height="2" fill="#66D4B7"/>
<rect x="52" width="22" height="2" fill="#66D4B7"/>
<path d="M78 0H98V2H78V0Z" fill="#66D4B7"/>
<path d="M102 0H120V2H102V0Z" fill="#66D4B7"/>
<path d="M124 0H140V2H124V0Z" fill="#66D4B7"/>
<path d="M144 0H158V2H144V0Z" fill="#66D4B7"/>
<path d="M162 0H174V2H162V0Z" fill="#66D4B7"/>
<path d="M178 0H188V2H178V0Z" fill="#66D4B7"/>
<path d="M192 0H200V2H192V0Z" fill="#66D4B7"/>
<path d="M204 0H210V2H204V0Z" fill="#66D4B7"/>
<path d="M214 0H218V2H214V0Z" fill="#66D4B7"/>
<path d="M222 0H224V2H222V0Z" fill="#66D4B7"/>
</svg>
