<?xml version="1.0" encoding="UTF-8"?>
<!DOCTYPE svg PUBLIC "-//W3C//DTD SVG 1.1//EN" "http://www.w3.org/Graphics/SVG/1.1/DTD/svg11.dtd">
<svg xmlns="http://www.w3.org/2000/svg" version="1.1" width="74px" height="2px" style="shape-rendering:geometricPrecision; text-rendering:geometricPrecision; image-rendering:optimizeQuality; fill-rule:evenodd; clip-rule:evenodd" xmlns:xlink="http://www.w3.org/1999/xlink">
<g><path style="opacity:1" fill="#66d4b6" d="M -0.5,-0.5 C 6.83333,-0.5 14.1667,-0.5 21.5,-0.5C 21.5,0.166667 21.5,0.833333 21.5,1.5C 14.1667,1.5 6.83333,1.5 -0.5,1.5C -0.5,0.833333 -0.5,0.166667 -0.5,-0.5 Z"/></g>
<g><path style="opacity:1" fill="#66d4b6" d="M 25.5,-0.5 C 32.8333,-0.5 40.1667,-0.5 47.5,-0.5C 47.5,0.166667 47.5,0.833333 47.5,1.5C 40.1667,1.5 32.8333,1.5 25.5,1.5C 25.5,0.833333 25.5,0.166667 25.5,-0.5 Z"/></g>
<g><path style="opacity:1" fill="#66d4b6" d="M 51.5,-0.5 C 58.8333,-0.5 66.1667,-0.5 73.5,-0.5C 73.5,0.166667 73.5,0.833333 73.5,1.5C 66.1667,1.5 58.8333,1.5 51.5,1.5C 51.5,0.833333 51.5,0.166667 51.5,-0.5 Z"/></g>
</svg>
